<svg version="1.1" xmlns="http://www.w3.org/2000/svg" viewBox="0 0 667.5177623456715 272.44630068549543" width="667.5177623456715" height="272.44630068549543" filter="invert(93%) hue-rotate(180deg)">
  <!-- svg-source:excalidraw -->
  
  <defs>
    <style class="style-fonts">
      
    </style>
    
  </defs>
  <g stroke-linecap="round"><g transform="translate(41.86513450888913 205.56176370710148) rotate(0 0 26.51534477153149)"><path d="M0.79 -0.31 C0.58 8.65, 0.09 44.56, -0.1 53.58 M-0.25 -1.52 C-0.73 7.1, -0.93 42.85, -1.1 51.75" stroke="#1e1e1e" stroke-width="1" fill="none"></path></g></g><mask></mask><g stroke-linecap="round"><g transform="translate(142.01658786283804 225.56176370710148) rotate(0 0 15.838006882920865)"><path d="M-0.13 -0.34 C-0.18 4.97, 0.13 26.6, 0.12 31.88 M0.81 0.67 C0.66 5.82, 0 25.84, -0.25 31.02" stroke="#1e1e1e" stroke-width="1" fill="none"></path></g></g><mask></mask><g stroke-linecap="round"><g transform="translate(166.44578080732379 213.56176370710136) rotate(0 0 24.356449108583035)"><path d="M0.52 0.06 C0.58 8.12, -0.03 40.72, -0.13 48.88 M0.13 -0.39 C0.14 7.74, -0.54 39.92, -0.62 48.01" stroke="#1e1e1e" stroke-width="1" fill="none"></path></g></g><mask></mask><g stroke-linecap="round"><g transform="translate(266.5972341612727 233.56176370710148) rotate(0 0 12.67911121997247)"><path d="M-0.13 0.17 C-0.22 4.44, -0.11 21.39, -0.03 25.66 M0.81 -0.22 C0.6 3.89, -0.38 20.66, -0.47 24.85" stroke="#1e1e1e" stroke-width="1" fill="none"></path></g></g><mask></mask><g stroke-linecap="round"><g transform="translate(287.5835722992009 229.5617637071016) rotate(0 0 15.274037028837427)"><path d="M-0.11 -0.41 C-0.1 4.65, -0.24 25.22, -0.23 30.37 M-0.83 0.58 C-0.89 5.71, -0.85 25.89, -0.77 30.98" stroke="#1e1e1e" stroke-width="1" fill="none"></path></g></g><mask></mask><g stroke-linecap="round"><g transform="translate(387.7350256531498 232.56176370710148) rotate(0 0 13.096699140226804)"><path d="M-0.23 -0.18 C-0.21 4.25, -0.1 21.79, -0.04 26.15 M0.66 -0.75 C0.6 3.8, -0.36 22.29, -0.49 26.83" stroke="#1e1e1e" stroke-width="1" fill="none"></path></g></g><mask></mask><g stroke-linecap="round"><g transform="translate(405.00976523831343 232.56176370710148) rotate(0 0 11.999951985068094)"><path d="M-0.41 0.01 C-0.41 4.02, 0.01 19.57, 0.14 23.58 M0.38 -0.45 C0.31 3.65, -0.19 19.87, -0.22 24.07" stroke="#1e1e1e" stroke-width="1" fill="none"></path></g></g><mask></mask><g stroke-linecap="round"><g transform="translate(505.16121859226234 237.56176370710148) rotate(0 0 8.837755668536602)"><path d="M0.14 -0.42 C0.27 2.54, 0.36 14.64, 0.37 17.74 M-0.45 0.56 C-0.33 3.61, 0.06 15.67, 0.13 18.48" stroke="#1e1e1e" stroke-width="1" fill="none"></path></g></g><mask></mask><g stroke-linecap="round"><g transform="translate(517.8315927938744 237.56176370710148) rotate(0 0 9.650594035460529)"><path d="M-0.23 0.04 C-0.29 3.35, -0.27 16.45, -0.14 19.75 M0.65 -0.42 C0.49 2.76, -0.61 15.78, -0.64 19.02" stroke="#1e1e1e" stroke-width="1" fill="none"></path></g></g><mask></mask><g stroke-linecap="round"><g transform="translate(617.9830461478233 243.56176370710148) rotate(0 0 5.988397718929036)"><path d="M-0.14 0.45 C-0.01 2.53, 0.54 10.63, 0.53 12.5 M0.79 0.21 C0.91 2.14, 0.61 9.82, 0.37 11.8" stroke="#1e1e1e" stroke-width="1" fill="none"></path></g></g><mask></mask><g stroke-linecap="round"><g transform="translate(10.865134508889128 261.5617637071015) rotate(0 322.5 0)"><path d="M0.39 0.48 C107.9 0.27, 536.97 -0.4, 644.31 -0.59 M-0.87 -0.31 C107.11 -0.44, 539.29 0.53, 646.65 0.64" stroke="#1e1e1e" stroke-width="4" fill="none"></path></g><g transform="translate(10.865134508889128 261.5617637071015) rotate(0 322.5 0)"><path d="M648.52 2.12 L633.2 7.61 L634.06 -3.78 L645.53 2.38" stroke="none" stroke-width="0" fill="#1e1e1e" fill-rule="evenodd"></path><path d="M646.65 0.64 C644.1 1.3, 639.57 2.87, 633.05 6.96 M646.65 0.64 C644.03 1.85, 639.26 3.26, 633.05 6.96 M633.05 6.96 C633.28 2.46, 632.42 -1.93, 633.07 -5.72 M633.05 6.96 C633.25 2.67, 632.74 -0.51, 633.07 -5.72 M633.07 -5.72 C638.71 -2.56, 640.66 -1.65, 646.65 0.64 M633.07 -5.72 C637.52 -3.58, 642.58 -0.63, 646.65 0.64 M646.65 0.64 C646.65 0.64, 646.65 0.64, 646.65 0.64 M646.65 0.64 C646.65 0.64, 646.65 0.64, 646.65 0.64" stroke="#1e1e1e" stroke-width="4" fill="none"></path></g></g><mask></mask><g stroke-linecap="round"><g transform="translate(11.471387844942456 260.5617637071015) rotate(0 0 -124.50000000000006)"><path d="M-0.59 1.09 C-0.48 -40.34, 0.58 -206.91, 0.85 -248.63 M1.3 0.61 C1.31 -41.19, 0.43 -209.12, 0.34 -250.56" stroke="#1e1e1e" stroke-width="4" fill="none"></path></g><g transform="translate(11.471387844942456 260.5617637071015) rotate(0 0 -124.50000000000006)"><path d="M2 -250.84 L6.64 -235.54 L-3.97 -236.35 L-0.28 -251.56" stroke="none" stroke-width="0" fill="#1e1e1e" fill-rule="evenodd"></path><path d="M0.34 -250.56 C3.72 -245.18, 4.84 -240.68, 6.74 -236.99 M0.34 -250.56 C2.28 -246.44, 4.49 -242.59, 6.74 -236.99 M6.74 -236.99 C2.74 -237.5, -2.56 -236.38, -5.94 -236.94 M6.74 -236.99 C3.77 -237.56, 2.08 -236.52, -5.94 -236.94 M-5.94 -236.94 C-4.86 -240.55, -2.89 -242.39, 0.34 -250.56 M-5.94 -236.94 C-4.9 -240.91, -3.06 -245.07, 0.34 -250.56 M0.34 -250.56 C0.34 -250.56, 0.34 -250.56, 0.34 -250.56 M0.34 -250.56 C0.34 -250.56, 0.34 -250.56, 0.34 -250.56" stroke="#1e1e1e" stroke-width="4" fill="none"></path></g></g><mask></mask><g transform="translate(41.86513450888913 203.56176370710148) rotate(0 49 5)" stroke="none"><path fill="#1e1e1e" d="M 0,-2.67 Q 0,-2.67 1.15,-2.68 2.3,-2.70 3.69,-2.77 5.08,-2.84 6.15,-2.90 7.22,-2.96 8.57,-2.98 9.91,-3.01 10.39,-4.23 10.86,-5.46 11.84,-6.99 12.82,-8.53 14.50,-9.74 16.18,-10.95 17.43,-11.25 18.69,-11.55 20.27,-12.48 21.86,-13.40 23.02,-13.47 24.19,-13.53 25.72,-13.55 27.25,-13.57 28.75,-13.57 30.26,-13.58 31.37,-13.55 32.49,-13.53 33.88,-12.92 35.27,-12.30 36.89,-11.67 38.50,-11.03 39.57,-10.28 40.64,-9.53 41.68,-7.99 42.72,-6.45 43.78,-5.88 44.85,-5.31 45.96,-3.68 47.08,-2.05 48.66,-1.28 50.25,-0.51 51.34,0.38 52.43,1.29 53.77,2.64 55.12,4.00 56.65,4.63 58.18,5.26 59.14,6.12 60.11,6.99 61.97,7.61 63.84,8.24 65.53,9.25 67.22,10.26 68.67,10.92 70.13,11.57 71.17,12.07 72.20,12.58 74.12,13.04 76.03,13.50 78.03,13.99 80.04,14.48 81.18,14.44 82.33,14.40 83.91,14.43 85.50,14.46 86.75,14.95 88.01,15.44 89.28,15.44 90.55,15.44 91.79,15.94 93.03,16.43 95.52,16.40 98.01,16.37 98.59,16.47 99.16,16.57 99.68,16.84 100.20,17.12 100.60,17.55 101.00,17.97 101.24,18.51 101.49,19.04 101.55,19.62 101.61,20.20 101.48,20.78 101.35,21.35 101.05,21.85 100.75,22.35 100.30,22.73 99.85,23.10 99.31,23.32 98.76,23.53 98.18,23.56 97.59,23.59 97.03,23.43 96.46,23.28 95.98,22.95 95.50,22.62 95.14,22.15 94.79,21.68 94.60,21.12 94.42,20.57 94.42,19.98 94.42,19.40 94.61,18.84 94.80,18.29 95.16,17.82 95.51,17.36 96.00,17.03 96.49,16.70 97.05,16.55 97.62,16.39 98.20,16.43 98.79,16.46 99.33,16.68 99.87,16.90 100.32,17.28 100.76,17.66 101.06,18.16 101.36,18.67 101.49,19.24 101.61,19.81 101.55,20.39 101.48,20.98 101.23,21.51 100.98,22.04 100.58,22.46 100.18,22.89 99.66,23.16 99.14,23.43 98.56,23.52 97.98,23.62 97.98,23.62 97.98,23.62 96.04,23.59 94.09,23.57 92.74,23.44 91.39,23.31 90.24,22.94 89.10,22.56 87.75,22.44 86.41,22.31 84.82,21.94 83.23,21.58 82.16,21.55 81.09,21.53 79.74,21.40 78.39,21.27 77.13,20.86 75.88,20.45 74.38,19.94 72.88,19.43 71.58,19.29 70.27,19.15 69.27,18.65 68.27,18.15 66.65,17.55 65.03,16.95 63.92,15.91 62.82,14.87 61.36,14.49 59.90,14.10 58.48,13.69 57.06,13.28 55.50,12.24 53.94,11.19 52.44,10.56 50.94,9.93 50.23,8.77 49.51,7.61 48.62,6.73 47.72,5.85 46.37,5.48 45.03,5.10 43.37,3.82 41.71,2.55 41.18,1.63 40.65,0.71 39.69,-0.20 38.74,-1.12 37.39,-2.77 36.05,-4.43 34.51,-4.70 32.96,-4.97 31.61,-5.69 30.26,-6.41 28.76,-6.42 27.26,-6.42 25.81,-6.42 24.35,-6.43 23.29,-6.38 22.22,-6.33 20.81,-5.97 19.39,-5.61 18.07,-4.37 16.76,-3.12 15.57,-1.50 14.38,0.12 13.59,1.05 12.80,1.97 11.51,2.49 10.23,3.01 8.73,2.98 7.22,2.96 6.15,2.90 5.08,2.84 3.69,2.77 2.3,2.70 1.15,2.68 0,2.67 -0.31,2.63 -0.63,2.59 -0.93,2.47 -1.24,2.36 -1.50,2.18 -1.77,1.99 -1.98,1.75 -2.19,1.51 -2.34,1.23 -2.49,0.94 -2.57,0.63 -2.65,0.32 -2.65,-0.00 -2.65,-0.32 -2.57,-0.63 -2.49,-0.94 -2.34,-1.23 -2.19,-1.51 -1.98,-1.75 -1.77,-1.99 -1.50,-2.18 -1.24,-2.36 -0.93,-2.47 -0.63,-2.59 -0.31,-2.63 0.00,-2.67 0.00,-2.67 L 0,-2.67 Z"></path></g><g transform="translate(167.86513450888913 212.56176370710148) rotate(0 49 5)" stroke="none"><path fill="#1e1e1e" d="M 0,-2.67 Q 0,-2.67 1.15,-2.68 2.3,-2.70 3.69,-2.77 5.08,-2.84 6.15,-2.90 7.22,-2.96 8.57,-2.98 9.91,-3.01 10.39,-4.23 10.86,-5.46 11.84,-6.99 12.82,-8.53 14.50,-9.74 16.18,-10.95 17.43,-11.25 18.69,-11.55 20.27,-12.48 21.86,-13.40 23.02,-13.47 24.19,-13.53 25.72,-13.55 27.25,-13.57 28.75,-13.57 30.26,-13.58 31.37,-13.55 32.49,-13.53 33.88,-12.92 35.27,-12.30 36.89,-11.67 38.50,-11.03 39.57,-10.28 40.64,-9.53 41.68,-7.99 42.72,-6.45 43.78,-5.88 44.85,-5.31 45.96,-3.68 47.08,-2.05 48.66,-1.28 50.25,-0.51 51.34,0.38 52.43,1.29 53.77,2.64 55.12,4.00 56.65,4.63 58.18,5.26 59.14,6.12 60.11,6.99 61.97,7.61 63.84,8.24 65.53,9.25 67.22,10.26 68.67,10.92 70.13,11.57 71.17,12.07 72.20,12.58 74.12,13.04 76.03,13.50 78.03,13.99 80.04,14.48 81.18,14.44 82.33,14.40 83.91,14.43 85.50,14.46 86.75,14.95 88.01,15.44 89.28,15.44 90.55,15.44 91.79,15.94 93.03,16.43 95.36,16.40 97.69,16.37 98.27,16.47 98.85,16.57 99.37,16.84 99.88,17.12 100.28,17.54 100.69,17.97 100.93,18.50 101.17,19.04 101.24,19.62 101.30,20.20 101.17,20.77 101.04,21.35 100.74,21.85 100.43,22.35 99.99,22.73 99.54,23.10 98.99,23.32 98.45,23.53 97.86,23.56 97.28,23.59 96.71,23.43 96.15,23.28 95.66,22.95 95.18,22.61 94.83,22.15 94.47,21.68 94.29,21.12 94.10,20.57 94.11,19.98 94.11,19.40 94.30,18.84 94.49,18.29 94.84,17.82 95.20,17.36 95.69,17.03 96.17,16.70 96.74,16.55 97.30,16.39 97.89,16.43 98.47,16.46 99.02,16.68 99.56,16.90 100.00,17.28 100.45,17.66 100.75,18.16 101.05,18.67 101.17,19.24 101.30,19.81 101.23,20.39 101.17,20.98 100.92,21.51 100.67,22.04 100.27,22.46 99.86,22.89 99.34,23.16 98.82,23.43 98.25,23.52 97.67,23.62 97.67,23.62 97.67,23.62 95.88,23.59 94.09,23.57 92.74,23.44 91.39,23.31 90.24,22.94 89.10,22.56 87.75,22.44 86.41,22.31 84.82,21.94 83.23,21.58 82.16,21.55 81.09,21.53 79.74,21.40 78.39,21.27 77.13,20.86 75.88,20.45 74.38,19.94 72.88,19.43 71.58,19.29 70.27,19.15 69.27,18.65 68.27,18.15 66.65,17.55 65.03,16.95 63.92,15.91 62.82,14.87 61.36,14.49 59.90,14.10 58.48,13.69 57.06,13.28 55.50,12.24 53.94,11.19 52.44,10.56 50.94,9.93 50.23,8.77 49.51,7.61 48.62,6.73 47.72,5.85 46.37,5.48 45.03,5.10 43.37,3.82 41.71,2.55 41.18,1.63 40.65,0.71 39.69,-0.20 38.74,-1.12 37.39,-2.77 36.05,-4.43 34.51,-4.70 32.96,-4.97 31.61,-5.69 30.26,-6.41 28.76,-6.42 27.26,-6.42 25.81,-6.42 24.35,-6.43 23.29,-6.38 22.22,-6.33 20.81,-5.97 19.39,-5.61 18.07,-4.37 16.76,-3.12 15.57,-1.50 14.38,0.12 13.59,1.05 12.80,1.97 11.51,2.49 10.23,3.01 8.73,2.98 7.22,2.96 6.15,2.90 5.08,2.84 3.69,2.77 2.3,2.70 1.15,2.68 0,2.67 -0.31,2.63 -0.63,2.59 -0.93,2.47 -1.24,2.36 -1.50,2.18 -1.77,1.99 -1.98,1.75 -2.19,1.51 -2.34,1.23 -2.49,0.94 -2.57,0.63 -2.65,0.32 -2.65,-0.00 -2.65,-0.32 -2.57,-0.63 -2.49,-0.94 -2.34,-1.23 -2.19,-1.51 -1.98,-1.75 -1.77,-1.99 -1.50,-2.18 -1.24,-2.36 -0.93,-2.47 -0.63,-2.59 -0.31,-2.63 0.00,-2.67 0.00,-2.67 L 0,-2.67 Z"></path></g><g transform="translate(289.8651345088891 229.56176370710148) rotate(0 47 -5)" stroke="none"><path fill="#1e1e1e" d="M -0.83,-2.51 Q -0.83,-2.51 0.00,-2.82 0.84,-3.14 2.08,-3.80 3.32,-4.47 4.21,-5.45 5.09,-6.43 6.05,-7.87 7.00,-9.31 8.34,-10.33 9.67,-11.35 10.42,-12.12 11.18,-12.88 12.14,-13.44 13.11,-14.00 14.11,-14.48 15.11,-14.96 16.57,-15.18 18.03,-15.40 19.12,-15.44 20.22,-15.47 21.85,-15.46 23.49,-15.45 24.73,-14.97 25.97,-14.49 27.15,-13.58 28.33,-12.67 29.55,-11.99 30.76,-11.32 32.45,-10.92 34.13,-10.51 35.39,-10.07 36.66,-9.63 38.34,-9.07 40.02,-8.52 41.11,-7.99 42.21,-7.47 44.13,-7.00 46.05,-6.52 47.58,-6.02 49.10,-5.52 50.22,-5.56 51.33,-5.61 52.99,-5.57 54.66,-5.53 55.90,-5.53 57.15,-5.53 58.70,-5.54 60.25,-5.55 61.54,-5.54 62.83,-5.54 64.00,-5.54 65.18,-5.54 66.33,-5.52 67.47,-5.49 68.73,-5.01 69.98,-4.53 71.17,-3.61 72.35,-2.69 73.78,-3.13 75.22,-3.57 77.09,-3.06 78.97,-2.54 80.15,-2.57 81.32,-2.60 82.70,-2.58 84.08,-2.56 85.16,-2.57 86.23,-2.57 87.53,-2.56 88.83,-2.55 91.91,-1.95 95.00,-1.35 95.51,-1.11 96.02,-0.86 96.42,-0.46 96.83,-0.06 97.08,0.43 97.34,0.94 97.42,1.50 97.50,2.06 97.40,2.62 97.30,3.18 97.02,3.68 96.74,4.17 96.32,4.55 95.91,4.93 95.39,5.16 94.87,5.39 94.30,5.44 93.74,5.49 93.19,5.36 92.63,5.23 92.15,4.92 91.67,4.62 91.31,4.18 90.96,3.74 90.76,3.21 90.56,2.68 90.54,2.11 90.52,1.55 90.68,1.00 90.84,0.46 91.17,0.00 91.50,-0.46 91.96,-0.79 92.41,-1.12 92.95,-1.29 93.50,-1.47 94.06,-1.45 94.63,-1.44 95.16,-1.25 95.70,-1.06 96.14,-0.71 96.59,-0.36 96.90,0.11 97.21,0.59 97.35,1.14 97.49,1.68 97.45,2.25 97.40,2.82 97.18,3.34 96.96,3.86 96.59,4.29 96.21,4.71 95.72,4.99 95.23,5.28 94.67,5.39 94.12,5.50 93.55,5.43 92.99,5.35 92.99,5.35 92.99,5.35 90.91,4.95 88.82,4.55 87.00,4.56 85.17,4.56 83.99,4.56 82.81,4.56 81.45,4.55 80.10,4.55 78.75,4.42 77.41,4.29 75.72,3.92 74.02,3.55 72.44,3.50 70.85,3.46 69.32,2.65 67.80,1.83 66.49,1.69 65.18,1.54 64.00,1.54 62.83,1.54 61.54,1.54 60.25,1.55 58.70,1.54 57.14,1.53 55.89,1.53 54.64,1.53 52.91,1.55 51.18,1.58 50.02,1.53 48.86,1.48 47.29,0.96 45.72,0.43 44.30,-0.04 42.88,-0.52 41.57,-0.65 40.27,-0.78 38.55,-1.66 36.83,-2.54 35.47,-2.69 34.11,-2.84 32.48,-3.68 30.85,-4.52 29.43,-4.72 28.02,-4.93 26.60,-5.91 25.19,-6.88 24.11,-7.71 23.02,-8.54 21.66,-8.52 20.30,-8.50 18.86,-8.62 17.43,-8.74 15.90,-8.20 14.36,-7.65 13.08,-6.45 11.79,-5.25 11.12,-4.11 10.45,-2.96 9.29,-1.93 8.13,-0.90 6.31,0.03 4.49,0.97 3.54,1.48 2.60,1.99 1.71,2.25 0.83,2.51 0.52,2.57 0.21,2.63 -0.10,2.62 -0.42,2.61 -0.73,2.52 -1.03,2.43 -1.31,2.27 -1.59,2.11 -1.82,1.89 -2.05,1.67 -2.22,1.40 -2.39,1.13 -2.49,0.83 -2.59,0.52 -2.61,0.20 -2.64,-0.10 -2.59,-0.42 -2.54,-0.73 -2.41,-1.03 -2.29,-1.32 -2.09,-1.57 -1.90,-1.83 -1.66,-2.03 -1.41,-2.23 -1.12,-2.37 -0.83,-2.51 -0.83,-2.51 L -0.83,-2.51 Z"></path></g><g transform="translate(406.8651345088891 232.56176370710148) rotate(0 47.5 0)" stroke="none"><path fill="#1e1e1e" d="M 0.84,-2.53 Q 0.84,-2.53 1.71,-2.28 2.58,-2.02 3.89,-1.98 5.19,-1.93 6.73,-1.98 8.26,-2.03 9.67,-2.06 11.07,-2.10 12.22,-2.52 13.36,-2.94 14.23,-3.85 15.09,-4.75 16.08,-5.26 17.06,-5.77 19.19,-6.42 21.31,-7.07 22.67,-7.20 24.04,-7.33 25.13,-7.36 26.22,-7.40 27.85,-7.39 29.48,-7.39 30.74,-6.91 31.99,-6.42 32.92,-5.80 33.84,-5.18 34.59,-4.39 35.35,-3.60 36.41,-3.78 37.47,-3.96 38.36,-3.35 39.24,-2.74 40.26,-3.17 41.29,-3.59 42.77,-3.59 44.26,-3.60 45.98,-3.56 47.69,-3.53 49.13,-3.14 50.56,-2.76 52.13,-2.61 53.70,-2.46 56.08,-2.04 58.46,-1.61 59.77,-1.14 61.07,-0.66 62.25,-0.49 63.42,-0.32 64.63,-0.30 65.85,-0.29 67.02,-0.30 68.19,-0.32 69.62,-0.32 71.06,-0.33 72.14,-0.35 73.22,-0.37 75.09,0.00 76.96,0.39 78.62,0.52 80.28,0.65 81.69,0.67 83.10,0.69 84.45,0.68 85.80,0.67 87.68,0.69 89.57,0.71 92.28,0.69 95.00,0.68 95.53,0.76 96.05,0.85 96.53,1.10 97.00,1.35 97.37,1.74 97.74,2.13 97.97,2.62 98.19,3.11 98.25,3.64 98.31,4.17 98.19,4.70 98.08,5.22 97.80,5.68 97.52,6.14 97.12,6.49 96.71,6.84 96.21,7.04 95.71,7.24 95.17,7.27 94.64,7.29 94.12,7.15 93.60,7.01 93.16,6.71 92.71,6.40 92.39,5.98 92.06,5.55 91.89,5.04 91.72,4.53 91.72,3.99 91.72,3.46 91.89,2.95 92.06,2.44 92.39,2.01 92.71,1.58 93.16,1.28 93.60,0.98 94.12,0.84 94.64,0.70 95.17,0.72 95.71,0.75 96.21,0.95 96.71,1.15 97.12,1.50 97.53,1.85 97.80,2.31 98.08,2.77 98.19,3.29 98.31,3.82 98.25,4.35 98.19,4.88 97.97,5.37 97.74,5.86 97.37,6.25 97.00,6.64 96.53,6.89 96.05,7.14 95.52,7.23 94.99,7.31 94.99,7.31 94.99,7.31 92.28,7.30 89.57,7.28 87.68,7.29 85.79,7.31 84.40,7.29 83.01,7.28 81.51,7.23 80.01,7.19 78.61,7.17 77.20,7.15 75.21,6.76 73.22,6.37 72.14,6.35 71.06,6.33 69.61,6.32 68.16,6.31 66.95,6.28 65.74,6.25 64.21,6.17 62.67,6.10 60.89,5.77 59.11,5.43 57.84,5.09 56.57,4.74 54.96,4.52 53.35,4.31 52.23,4.27 51.12,4.23 49.85,4.07 48.58,3.91 47.21,3.74 45.83,3.57 44.04,3.58 42.25,3.59 40.68,3.56 39.12,3.54 37.73,3.37 36.33,3.20 35.08,2.79 33.83,2.38 32.25,1.52 30.67,0.66 29.46,0.05 28.26,-0.55 26.78,-0.57 25.30,-0.59 23.92,-0.78 22.54,-0.98 20.96,-0.41 19.38,0.14 18.09,1.21 16.79,2.28 15.72,2.49 14.66,2.70 12.86,3.40 11.07,4.10 9.64,4.06 8.21,4.02 7.12,3.95 6.03,3.88 4.64,3.74 3.24,3.59 2.05,3.38 0.86,3.17 0.01,2.85 -0.84,2.53 -1.13,2.40 -1.42,2.26 -1.67,2.05 -1.92,1.85 -2.12,1.59 -2.31,1.33 -2.44,1.04 -2.57,0.74 -2.62,0.42 -2.67,0.10 -2.64,-0.21 -2.62,-0.53 -2.52,-0.84 -2.41,-1.14 -2.24,-1.41 -2.07,-1.69 -1.84,-1.91 -1.60,-2.13 -1.32,-2.30 -1.05,-2.46 -0.74,-2.55 -0.43,-2.64 -0.10,-2.65 0.21,-2.66 0.53,-2.60 0.84,-2.53 0.84,-2.53 L 0.84,-2.53 Z"></path></g><g transform="translate(519.8651345088891 237.56176370710148) rotate(0 48 4.5)" stroke="none"><path fill="#1e1e1e" d="M 0.42,-2.55 Q 0.42,-2.55 2.13,-2.19 3.85,-1.84 5.07,-1.74 6.30,-1.65 7.68,-1.29 9.05,-0.93 10.59,-0.85 12.13,-0.77 13.69,-0.84 15.26,-0.90 16.60,-0.94 17.94,-0.97 19.13,-0.58 20.32,-0.20 21.80,-0.19 23.29,-0.18 25.06,-0.20 26.83,-0.23 28.10,-0.23 29.38,-0.23 30.58,0.21 31.79,0.66 33.33,0.63 34.87,0.61 36.44,0.62 38.01,0.63 39.46,0.64 40.91,0.65 42.17,1.07 43.43,1.48 45.48,1.98 47.53,2.48 48.93,2.50 50.32,2.53 52.67,2.92 55.02,3.32 56.02,3.79 57.02,4.26 58.55,4.42 60.08,4.58 61.17,4.60 62.25,4.62 63.75,4.60 65.26,4.58 67.37,5.03 69.49,5.47 71.15,5.51 72.81,5.55 74.48,5.19 76.15,4.83 77.58,4.73 79.01,4.63 80.11,4.60 81.21,4.57 83.02,4.56 84.83,4.55 86.00,4.54 87.18,4.53 88.53,4.56 89.88,4.58 91.08,4.17 92.28,3.77 94.88,4.32 97.49,4.87 97.95,5.19 98.41,5.51 98.74,5.96 99.07,6.41 99.25,6.94 99.42,7.48 99.41,8.04 99.41,8.60 99.22,9.12 99.03,9.65 98.69,10.10 98.35,10.54 97.88,10.85 97.41,11.15 96.87,11.30 96.33,11.44 95.77,11.40 95.21,11.37 94.69,11.15 94.17,10.94 93.75,10.57 93.33,10.20 93.05,9.72 92.76,9.24 92.65,8.69 92.54,8.14 92.60,7.58 92.67,7.03 92.91,6.52 93.15,6.02 93.54,5.62 93.93,5.21 94.43,4.96 94.93,4.70 95.48,4.62 96.04,4.53 96.59,4.63 97.14,4.73 97.63,5.00 98.12,5.26 98.50,5.68 98.88,6.09 99.11,6.60 99.34,7.11 99.40,7.67 99.45,8.22 99.32,8.77 99.20,9.32 98.90,9.79 98.61,10.27 98.18,10.63 97.74,10.98 97.22,11.18 96.70,11.39 96.14,11.41 95.58,11.43 95.04,11.28 94.50,11.12 94.50,11.12 94.50,11.12 93.61,10.82 92.71,10.51 91.47,10.96 90.24,11.41 88.71,11.43 87.18,11.46 86.00,11.45 84.83,11.44 83.05,11.44 81.26,11.43 79.74,11.44 78.21,11.44 76.93,11.56 75.65,11.67 74.24,12.04 72.84,12.42 71.36,12.38 69.88,12.34 68.29,11.85 66.70,11.37 64.94,11.36 63.18,11.36 62.04,11.32 60.89,11.28 59.29,11.15 57.69,11.02 55.17,10.42 52.64,9.82 51.41,9.63 50.18,9.43 49.02,9.38 47.86,9.32 46.22,8.95 44.59,8.59 43.52,8.36 42.45,8.13 40.80,7.75 39.14,7.37 37.89,7.36 36.64,7.34 34.87,7.34 33.10,7.33 31.79,7.19 30.47,7.05 29.27,6.65 28.07,6.25 26.64,6.23 25.21,6.21 24.13,6.16 23.04,6.11 21.68,5.98 20.31,5.85 19.01,5.41 17.71,4.97 16.46,4.93 15.20,4.89 14.10,4.81 12.99,4.73 11.53,4.55 10.08,4.37 7.95,3.83 5.82,3.29 4.43,3.14 3.04,2.99 1.31,2.77 -0.42,2.55 -0.72,2.46 -1.02,2.37 -1.29,2.21 -1.56,2.06 -1.78,1.84 -2.00,1.62 -2.17,1.36 -2.34,1.09 -2.43,0.80 -2.53,0.50 -2.55,0.19 -2.58,-0.11 -2.53,-0.42 -2.48,-0.72 -2.35,-1.01 -2.23,-1.30 -2.04,-1.55 -1.85,-1.79 -1.61,-1.99 -1.37,-2.19 -1.09,-2.32 -0.80,-2.45 -0.50,-2.51 -0.19,-2.57 0.11,-2.56 0.42,-2.55 0.42,-2.55 L 0.42,-2.55 Z"></path></g></svg>