<svg version="1.1" xmlns="http://www.w3.org/2000/svg" viewBox="0 0 771.5177623456715 272.4692751452692" width="771.5177623456715" height="272.4692751452692" filter="invert(93%) hue-rotate(180deg)">
  <!-- svg-source:excalidraw -->
  
  <defs>
    <style class="style-fonts">
      
    </style>
    
  </defs>
  <g transform="translate(41.86513450888913 73.56176370710148) rotate(0 50 5)" stroke="none"><path fill="#d04000" d="M 0.64,-2.59 Q 0.64,-2.59 1.80,-2.31 2.95,-2.04 4.09,-1.97 5.24,-1.89 6.39,-2.31 7.54,-2.73 9.13,-2.86 10.72,-3.00 11.93,-3.05 13.15,-3.11 14.99,-3.16 16.82,-3.21 18.00,-3.23 19.18,-3.26 20.62,-3.28 22.06,-3.29 23.14,-3.31 24.22,-3.34 25.85,-3.34 27.48,-3.34 28.70,-2.87 29.92,-2.40 31.40,-2.43 32.87,-2.46 34.87,-2.06 36.87,-1.67 38.12,-1.58 39.36,-1.49 40.81,-1.49 42.26,-1.50 43.80,-1.50 45.33,-1.51 46.68,-1.11 48.03,-0.71 49.46,-0.62 50.89,-0.52 52.05,-0.51 53.20,-0.50 55.30,-0.48 57.40,-0.45 58.48,-0.42 59.56,-0.38 60.85,0.01 62.15,0.40 63.21,0.47 64.28,0.54 65.77,0.55 67.26,0.55 68.76,0.54 70.26,0.52 71.76,0.50 73.26,0.48 75.09,0.98 76.93,1.49 77.99,1.63 79.05,1.77 80.05,2.44 81.05,3.10 82.70,3.15 84.35,3.21 85.62,3.34 86.89,3.48 88.79,3.98 90.69,4.48 92.25,4.89 93.80,5.30 95.09,5.42 96.38,5.53 98.39,6.04 100.40,6.56 100.94,6.71 101.48,6.87 101.94,7.18 102.40,7.50 102.73,7.95 103.07,8.40 103.24,8.93 103.42,9.46 103.41,10.02 103.41,10.58 103.22,11.11 103.04,11.64 102.70,12.09 102.35,12.53 101.89,12.84 101.42,13.15 100.88,13.29 100.34,13.44 99.78,13.40 99.22,13.37 98.70,13.16 98.18,12.95 97.76,12.58 97.34,12.21 97.05,11.73 96.77,11.25 96.65,10.70 96.54,10.15 96.60,9.60 96.67,9.04 96.91,8.53 97.15,8.03 97.54,7.62 97.92,7.22 98.42,6.96 98.92,6.70 99.47,6.62 100.03,6.53 100.58,6.63 101.13,6.72 101.62,6.99 102.11,7.26 102.50,7.67 102.88,8.08 103.11,8.59 103.34,9.10 103.39,9.66 103.45,10.21 103.32,10.76 103.20,11.31 102.91,11.78 102.61,12.26 102.18,12.62 101.75,12.98 101.23,13.18 100.71,13.38 100.15,13.41 99.59,13.43 99.59,13.43 99.59,13.43 97.82,12.91 96.04,12.38 94.66,12.24 93.28,12.11 91.77,11.65 90.25,11.20 88.36,10.77 86.47,10.35 85.40,10.29 84.32,10.23 82.70,9.86 81.09,9.50 79.70,9.33 78.31,9.16 77.30,8.72 76.29,8.28 74.77,7.89 73.26,7.51 71.75,7.49 70.25,7.47 68.73,7.45 67.21,7.42 66.12,7.39 65.02,7.36 63.62,7.26 62.23,7.16 60.96,6.95 59.69,6.74 58.55,6.59 57.40,6.45 55.27,6.47 53.15,6.49 51.93,6.47 50.70,6.45 49.05,6.35 47.40,6.25 45.83,5.88 44.25,5.51 42.74,5.49 41.22,5.48 40.15,5.45 39.07,5.42 37.74,5.31 36.40,5.19 34.59,4.81 32.79,4.43 31.34,4.39 29.90,4.35 28.46,3.84 27.03,3.34 25.62,3.34 24.22,3.34 23.14,3.31 22.06,3.29 20.62,3.28 19.18,3.26 18.00,3.23 16.83,3.21 15.01,3.16 13.19,3.12 12.03,3.09 10.87,3.06 9.25,3.10 7.63,3.14 6.28,3.44 4.93,3.74 3.28,3.46 1.64,3.19 0.49,2.89 -0.64,2.59 -0.94,2.47 -1.25,2.36 -1.51,2.17 -1.77,1.99 -1.99,1.75 -2.20,1.51 -2.35,1.22 -2.50,0.93 -2.57,0.62 -2.65,0.31 -2.65,-0.00 -2.65,-0.33 -2.57,-0.64 -2.49,-0.95 -2.34,-1.24 -2.19,-1.52 -1.98,-1.76 -1.76,-2.00 -1.50,-2.18 -1.23,-2.37 -0.93,-2.48 -0.63,-2.59 -0.31,-2.63 0.00,-2.67 0.32,-2.63 0.64,-2.59 0.64,-2.59 L 0.64,-2.59 Z"></path></g><g transform="translate(167.86513450888913 74.56176370710148) rotate(0 50 5)" stroke="none"><path fill="#d04000" d="M 0.64,-2.59 Q 0.64,-2.59 1.80,-2.31 2.95,-2.04 4.09,-1.97 5.24,-1.89 6.39,-2.31 7.54,-2.73 9.13,-2.86 10.72,-3.00 11.93,-3.05 13.15,-3.11 14.99,-3.16 16.82,-3.21 18.00,-3.23 19.18,-3.26 20.62,-3.28 22.06,-3.29 23.14,-3.31 24.22,-3.34 25.85,-3.34 27.48,-3.34 28.70,-2.87 29.92,-2.40 31.40,-2.43 32.87,-2.46 34.87,-2.06 36.87,-1.67 38.12,-1.58 39.36,-1.49 40.81,-1.49 42.26,-1.50 43.80,-1.50 45.33,-1.51 46.68,-1.11 48.03,-0.71 49.46,-0.62 50.89,-0.52 52.05,-0.51 53.20,-0.50 55.30,-0.48 57.40,-0.45 58.48,-0.42 59.56,-0.38 60.85,0.01 62.15,0.40 63.21,0.47 64.28,0.54 65.77,0.55 67.26,0.55 68.76,0.54 70.26,0.52 71.76,0.50 73.26,0.48 75.09,0.98 76.93,1.49 77.99,1.63 79.05,1.77 80.05,2.44 81.05,3.10 82.70,3.15 84.35,3.21 85.62,3.34 86.89,3.48 88.79,3.98 90.69,4.48 92.25,4.89 93.80,5.30 95.09,5.42 96.38,5.53 98.25,6.04 100.11,6.54 100.65,6.69 101.19,6.85 101.64,7.17 102.10,7.48 102.44,7.93 102.77,8.38 102.94,8.90 103.12,9.43 103.11,9.99 103.11,10.55 102.92,11.08 102.74,11.60 102.40,12.04 102.06,12.48 101.60,12.79 101.13,13.10 100.59,13.24 100.06,13.39 99.50,13.35 98.94,13.32 98.43,13.11 97.91,12.90 97.49,12.53 97.07,12.17 96.79,11.69 96.50,11.21 96.39,10.66 96.27,10.12 96.34,9.56 96.40,9.01 96.64,8.51 96.88,8.00 97.27,7.60 97.65,7.20 98.15,6.95 98.64,6.69 99.19,6.60 99.74,6.52 100.29,6.61 100.84,6.71 101.33,6.97 101.82,7.24 102.20,7.65 102.58,8.05 102.81,8.56 103.04,9.07 103.09,9.62 103.15,10.18 103.03,10.72 102.90,11.27 102.61,11.74 102.32,12.21 101.89,12.57 101.46,12.93 100.94,13.13 100.42,13.33 99.87,13.36 99.31,13.38 99.31,13.38 99.31,13.38 97.68,12.88 96.04,12.38 94.66,12.24 93.28,12.11 91.77,11.65 90.25,11.20 88.36,10.77 86.47,10.35 85.40,10.29 84.32,10.23 82.70,9.86 81.09,9.50 79.70,9.33 78.31,9.16 77.30,8.72 76.29,8.28 74.77,7.89 73.26,7.51 71.75,7.49 70.25,7.47 68.73,7.45 67.21,7.42 66.12,7.39 65.02,7.36 63.62,7.26 62.23,7.16 60.96,6.95 59.69,6.74 58.55,6.59 57.40,6.45 55.27,6.47 53.15,6.49 51.93,6.47 50.70,6.45 49.05,6.35 47.40,6.25 45.83,5.88 44.25,5.51 42.74,5.49 41.22,5.48 40.15,5.45 39.07,5.42 37.74,5.31 36.40,5.19 34.59,4.81 32.79,4.43 31.34,4.39 29.90,4.35 28.46,3.84 27.03,3.34 25.62,3.34 24.22,3.34 23.14,3.31 22.06,3.29 20.62,3.28 19.18,3.26 18.00,3.23 16.83,3.21 15.01,3.16 13.19,3.12 12.03,3.09 10.87,3.06 9.25,3.10 7.63,3.14 6.28,3.44 4.93,3.74 3.28,3.46 1.64,3.19 0.49,2.89 -0.64,2.59 -0.94,2.47 -1.25,2.36 -1.51,2.17 -1.77,1.99 -1.99,1.75 -2.20,1.51 -2.35,1.22 -2.50,0.93 -2.57,0.62 -2.65,0.31 -2.65,-0.00 -2.65,-0.33 -2.57,-0.64 -2.49,-0.95 -2.34,-1.24 -2.19,-1.52 -1.98,-1.76 -1.76,-2.00 -1.50,-2.18 -1.23,-2.37 -0.93,-2.48 -0.63,-2.59 -0.31,-2.63 0.00,-2.67 0.32,-2.63 0.64,-2.59 0.64,-2.59 L 0.64,-2.59 Z"></path></g><g transform="translate(286.8651345088891 75.56176370710148) rotate(0 50 5)" stroke="none"><path fill="#d04000" d="M 0.64,-2.59 Q 0.64,-2.59 1.80,-2.31 2.95,-2.04 4.09,-1.97 5.24,-1.89 6.39,-2.31 7.54,-2.73 9.13,-2.86 10.72,-3.00 11.93,-3.05 13.15,-3.11 14.99,-3.16 16.82,-3.21 18.00,-3.23 19.18,-3.26 20.62,-3.28 22.06,-3.29 23.14,-3.31 24.22,-3.34 25.85,-3.34 27.48,-3.34 28.70,-2.87 29.92,-2.40 31.40,-2.43 32.87,-2.46 34.87,-2.06 36.87,-1.67 38.12,-1.58 39.36,-1.49 40.81,-1.49 42.26,-1.50 43.80,-1.50 45.33,-1.51 46.68,-1.11 48.03,-0.71 49.46,-0.62 50.89,-0.52 52.05,-0.51 53.20,-0.50 55.30,-0.48 57.40,-0.45 58.48,-0.42 59.56,-0.38 60.85,0.01 62.15,0.40 63.21,0.47 64.28,0.54 65.77,0.55 67.26,0.55 68.76,0.54 70.26,0.52 71.76,0.50 73.26,0.48 75.09,0.98 76.93,1.49 77.99,1.63 79.05,1.77 80.05,2.44 81.05,3.10 82.70,3.15 84.35,3.21 85.62,3.34 86.89,3.48 88.79,3.98 90.69,4.48 92.25,4.89 93.80,5.30 95.09,5.42 96.38,5.53 98.25,6.04 100.11,6.54 100.65,6.69 101.19,6.85 101.64,7.17 102.10,7.48 102.44,7.93 102.77,8.38 102.94,8.90 103.12,9.43 103.11,9.99 103.11,10.55 102.92,11.08 102.74,11.60 102.40,12.04 102.06,12.48 101.60,12.79 101.13,13.10 100.59,13.24 100.06,13.39 99.50,13.35 98.94,13.32 98.43,13.11 97.91,12.90 97.49,12.53 97.07,12.17 96.79,11.69 96.50,11.21 96.39,10.66 96.27,10.12 96.34,9.56 96.40,9.01 96.64,8.51 96.88,8.00 97.27,7.60 97.65,7.20 98.15,6.95 98.64,6.69 99.19,6.60 99.74,6.52 100.29,6.61 100.84,6.71 101.33,6.97 101.82,7.24 102.20,7.65 102.58,8.05 102.81,8.56 103.04,9.07 103.09,9.62 103.15,10.18 103.03,10.72 102.90,11.27 102.61,11.74 102.32,12.21 101.89,12.57 101.46,12.93 100.94,13.13 100.42,13.33 99.87,13.36 99.31,13.38 99.31,13.38 99.31,13.38 97.68,12.88 96.04,12.38 94.66,12.24 93.28,12.11 91.77,11.65 90.25,11.20 88.36,10.77 86.47,10.35 85.40,10.29 84.32,10.23 82.70,9.86 81.09,9.50 79.70,9.33 78.31,9.16 77.30,8.72 76.29,8.28 74.77,7.89 73.26,7.51 71.75,7.49 70.25,7.47 68.73,7.45 67.21,7.42 66.12,7.39 65.02,7.36 63.62,7.26 62.23,7.16 60.96,6.95 59.69,6.74 58.55,6.59 57.40,6.45 55.27,6.47 53.15,6.49 51.93,6.47 50.70,6.45 49.05,6.35 47.40,6.25 45.83,5.88 44.25,5.51 42.74,5.49 41.22,5.48 40.15,5.45 39.07,5.42 37.74,5.31 36.40,5.19 34.59,4.81 32.79,4.43 31.34,4.39 29.90,4.35 28.46,3.84 27.03,3.34 25.62,3.34 24.22,3.34 23.14,3.31 22.06,3.29 20.62,3.28 19.18,3.26 18.00,3.23 16.83,3.21 15.01,3.16 13.19,3.12 12.03,3.09 10.87,3.06 9.25,3.10 7.63,3.14 6.28,3.44 4.93,3.74 3.28,3.46 1.64,3.19 0.49,2.89 -0.64,2.59 -0.94,2.47 -1.25,2.36 -1.51,2.17 -1.77,1.99 -1.99,1.75 -2.20,1.51 -2.35,1.22 -2.50,0.93 -2.57,0.62 -2.65,0.31 -2.65,-0.00 -2.65,-0.33 -2.57,-0.64 -2.49,-0.95 -2.34,-1.24 -2.19,-1.52 -1.98,-1.76 -1.76,-2.00 -1.50,-2.18 -1.23,-2.37 -0.93,-2.48 -0.63,-2.59 -0.31,-2.63 0.00,-2.67 0.32,-2.63 0.64,-2.59 0.64,-2.59 L 0.64,-2.59 Z"></path></g><g transform="translate(408.8651345088891 80.56176370710148) rotate(0 46 8.5)" stroke="none"><path fill="#d04000" d="M 0,-2.66 Q 0,-2.66 1.12,-2.68 2.25,-2.70 4.00,-2.59 5.75,-2.48 7.72,-1.82 9.69,-1.15 10.91,-1.09 12.12,-1.03 13.32,-1.04 14.53,-1.06 16.23,-1.05 17.94,-1.05 19.69,-1.05 21.44,-1.06 22.61,-1.03 23.78,-1.01 25.24,-0.63 26.71,-0.25 28.20,-0.15 29.69,-0.05 31.54,0.81 33.38,1.69 34.46,2.26 35.53,2.83 36.68,3.35 37.83,3.87 38.96,3.93 40.08,3.98 41.19,3.99 42.30,4.00 43.78,3.98 45.27,3.96 47.16,4.39 49.05,4.82 50.11,4.90 51.18,4.98 52.63,5.00 54.09,5.01 56.30,5.44 58.51,5.86 59.60,6.38 60.70,6.90 61.87,7.03 63.05,7.16 65.06,7.48 67.07,7.80 68.54,8.63 70.00,9.46 71.91,10.03 73.82,10.59 75.50,10.95 77.19,11.30 78.32,11.30 79.46,11.31 80.96,11.30 82.46,11.29 84.58,11.63 86.70,11.96 87.57,12.57 88.45,13.18 89.49,13.77 90.54,14.36 91.33,13.86 92.12,13.37 92.69,13.48 93.27,13.60 93.78,13.89 94.29,14.18 94.68,14.62 95.07,15.06 95.30,15.60 95.52,16.14 95.57,16.73 95.61,17.31 95.47,17.88 95.32,18.45 95.00,18.94 94.68,19.44 94.22,19.80 93.76,20.17 93.21,20.37 92.65,20.56 92.07,20.58 91.48,20.59 90.92,20.41 90.36,20.24 89.89,19.89 89.41,19.54 89.07,19.07 88.73,18.59 88.56,18.02 88.39,17.46 88.41,16.87 88.43,16.29 88.64,15.74 88.85,15.19 89.22,14.73 89.59,14.28 90.09,13.96 90.58,13.65 91.15,13.51 91.73,13.37 92.31,13.43 92.90,13.48 93.43,13.71 93.97,13.95 94.41,14.34 94.84,14.74 95.13,15.25 95.41,15.77 95.52,16.34 95.62,16.92 95.54,17.50 95.46,18.08 95.19,18.61 94.93,19.13 94.51,19.55 94.09,19.96 93.56,20.22 93.04,20.47 92.45,20.55 91.87,20.62 91.87,20.62 91.87,20.62 89.55,20.40 87.24,20.18 85.83,19.32 84.42,18.46 82.94,18.45 81.47,18.44 79.91,18.43 78.36,18.42 76.94,18.43 75.52,18.43 74.31,18.34 73.10,18.26 71.70,17.21 70.30,16.16 69.00,16.01 67.71,15.86 66.25,14.96 64.79,14.06 63.71,14.02 62.62,13.98 61.19,13.80 59.76,13.62 58.02,12.98 56.28,12.35 55.16,12.16 54.03,11.97 52.95,11.94 51.87,11.91 50.47,11.81 49.08,11.70 47.62,11.30 46.16,10.90 44.71,10.88 43.26,10.87 42.17,10.84 41.08,10.82 39.46,10.75 37.83,10.67 36.08,10.15 34.33,9.64 33.39,8.93 32.45,8.22 30.93,7.29 29.41,6.36 28.08,6.22 26.75,6.09 25.23,5.67 23.71,5.26 22.57,5.28 21.44,5.30 19.69,5.30 17.94,5.29 16.21,5.29 14.49,5.29 13.14,5.24 11.79,5.20 10.45,5.02 9.11,4.84 7.68,4.30 6.26,3.76 4.25,3.23 2.25,2.70 1.12,2.68 0,2.66 -0.31,2.62 -0.63,2.58 -0.93,2.47 -1.23,2.36 -1.50,2.17 -1.76,1.99 -1.98,1.75 -2.19,1.51 -2.34,1.22 -2.49,0.94 -2.56,0.63 -2.64,0.32 -2.64,-0.00 -2.64,-0.32 -2.56,-0.63 -2.49,-0.94 -2.34,-1.22 -2.19,-1.51 -1.98,-1.75 -1.76,-1.99 -1.50,-2.17 -1.23,-2.36 -0.93,-2.47 -0.63,-2.58 -0.31,-2.62 0.00,-2.66 0.00,-2.66 L 0,-2.66 Z"></path></g><g transform="translate(520.8651345088891 101.56176370710148) rotate(0 48 17.5)" stroke="none"><path fill="#d04000" d="M 1.18,-2.36 Q 1.18,-2.36 2.32,-1.80 3.47,-1.23 4.88,-1.06 6.29,-0.90 8.09,-0.88 9.90,-0.87 11.25,-0.41 12.61,0.05 13.40,0.91 14.20,1.78 15.11,2.66 16.02,3.54 16.81,4.28 17.60,5.02 18.74,5.41 19.88,5.80 20.78,6.88 21.67,7.95 22.91,8.29 24.14,8.63 25.94,9.13 27.74,9.64 28.92,10.03 30.10,10.43 31.20,10.51 32.30,10.60 34.10,10.65 35.89,10.71 37.88,11.46 39.86,12.21 41.00,12.32 42.15,12.44 43.42,13.40 44.70,14.36 45.68,15.32 46.67,16.29 48.40,16.67 50.13,17.04 51.14,17.75 52.14,18.46 53.20,18.95 54.26,19.45 55.58,20.02 56.90,20.59 58.41,21.15 59.92,21.71 61.15,23.14 62.39,24.58 63.61,24.53 64.83,24.49 66.47,24.54 68.12,24.58 69.46,24.58 70.80,24.59 71.92,24.66 73.03,24.74 74.19,25.27 75.36,25.79 76.47,26.13 77.59,26.47 79.08,27.38 80.57,28.29 81.79,28.43 83.02,28.56 84.35,28.96 85.69,29.37 87.02,29.47 88.36,29.57 90.82,29.95 93.28,30.32 95.26,31.10 97.23,31.88 97.70,32.16 98.16,32.44 98.52,32.85 98.87,33.26 99.07,33.77 99.27,34.27 99.30,34.81 99.33,35.35 99.19,35.88 99.04,36.40 98.74,36.85 98.43,37.30 98.00,37.63 97.57,37.96 97.05,38.13 96.54,38.31 96.00,38.31 95.45,38.31 94.94,38.13 94.43,37.96 93.99,37.63 93.56,37.30 93.26,36.86 92.95,36.41 92.81,35.88 92.66,35.36 92.69,34.82 92.72,34.28 92.92,33.77 93.12,33.27 93.47,32.85 93.82,32.44 94.29,32.16 94.75,31.88 95.28,31.76 95.81,31.65 96.35,31.70 96.89,31.76 97.38,31.99 97.88,32.22 98.27,32.59 98.66,32.96 98.92,33.44 99.17,33.92 99.26,34.46 99.35,34.99 99.26,35.53 99.18,36.06 98.92,36.54 98.67,37.02 98.27,37.40 97.88,37.77 97.39,38.00 96.89,38.23 96.36,38.29 95.82,38.35 95.29,38.23 94.76,38.11 94.76,38.11 94.76,38.11 92.47,37.26 90.19,36.41 89.12,36.38 88.06,36.35 86.71,36.22 85.36,36.10 83.96,35.69 82.55,35.29 80.65,35.00 78.76,34.72 77.43,33.91 76.10,33.10 74.73,32.59 73.37,32.09 72.08,31.74 70.79,31.40 69.40,31.39 68.01,31.38 66.42,31.33 64.83,31.29 63.19,30.95 61.56,30.62 60.24,30.15 58.92,29.69 57.74,28.37 56.56,27.06 54.85,26.60 53.14,26.14 52.15,25.65 51.17,25.16 49.65,23.96 48.12,22.75 46.77,22.58 45.42,22.42 43.96,21.76 42.49,21.11 41.03,19.87 39.57,18.64 38.50,18.32 37.43,18.01 35.83,17.61 34.22,17.22 32.17,17.13 30.13,17.05 28.27,16.54 26.42,16.04 24.97,15.59 23.51,15.13 22.35,14.97 21.18,14.80 19.87,14.03 18.55,13.25 17.15,11.88 15.75,10.51 14.28,9.40 12.81,8.30 11.95,7.40 11.08,6.51 9.62,5.61 8.15,4.72 5.98,4.49 3.82,4.27 2.47,3.90 1.12,3.53 -0.02,2.95 -1.18,2.36 -1.45,2.19 -1.71,2.01 -1.93,1.78 -2.15,1.54 -2.30,1.26 -2.45,0.98 -2.54,0.67 -2.62,0.37 -2.62,0.05 -2.63,-0.26 -2.56,-0.57 -2.49,-0.89 -2.35,-1.17 -2.20,-1.46 -2.00,-1.70 -1.79,-1.94 -1.53,-2.13 -1.27,-2.32 -0.98,-2.44 -0.68,-2.55 -0.36,-2.60 -0.05,-2.64 0.26,-2.61 0.58,-2.58 0.88,-2.47 1.18,-2.36 1.18,-2.36 L 1.18,-2.36 Z"></path></g><g stroke-linecap="round"><g transform="translate(41.86513450888913 77.0658991025241) rotate(0 0 90.76327707382018)"><path d="M0.79 -0.31 C0.58 30.07, 0.09 151.64, -0.1 182.08 M-0.25 -1.52 C-0.73 28.52, -0.93 149.93, -1.1 180.25" stroke="#d04000" stroke-width="1" fill="none"></path></g></g><mask></mask><g stroke-linecap="round"><g transform="translate(142.01658786283804 82.13479721968008) rotate(0 0 87.55149012663156)"><path d="M-0.27 -0.75 C-0.39 28.51, 0.29 146.37, 0.26 175.55 M1.78 1.48 C1.45 30.37, -0.01 144.7, -0.55 173.66" stroke="#d04000" stroke-width="1" fill="none"></path></g></g><mask></mask><g stroke-linecap="round"><g transform="translate(166.44578080732379 78.74810777662708) rotate(0 0 90.76327707382018)"><path d="M1.14 0.13 C1.26 30.26, -0.08 151.56, -0.28 181.9 M0.28 -0.85 C0.3 29.43, -1.18 149.8, -1.37 179.98" stroke="#d04000" stroke-width="1" fill="none"></path></g></g><mask></mask><g stroke-linecap="round"><g transform="translate(266.5972341612727 83.81700589378329) rotate(0 0 87.55149012663156)"><path d="M-0.28 0.37 C-0.48 29.65, -0.25 146.49, -0.06 175.77 M1.78 -0.47 C1.32 28.44, -0.83 144.88, -1.03 173.99" stroke="#d04000" stroke-width="1" fill="none"></path></g></g><mask></mask><g stroke-linecap="round"><g transform="translate(287.5835722992009 78.58328361713609) rotate(0 0 90.76327707382018)"><path d="M-0.24 -0.88 C-0.22 29.29, -0.52 150.75, -0.49 181.14 M-1.82 1.27 C-1.96 31.61, -1.86 152.23, -1.7 182.47" stroke="#d04000" stroke-width="1" fill="none"></path></g></g><mask></mask><g stroke-linecap="round"><g transform="translate(387.7350256531498 83.65218173429196) rotate(0 0 87.55149012663156)"><path d="M-0.49 -0.39 C-0.47 28.93, -0.22 145.84, -0.08 175.01 M1.45 -1.64 C1.33 27.95, -0.79 146.94, -1.07 176.5" stroke="#d04000" stroke-width="1" fill="none"></path></g></g><mask></mask><g stroke-linecap="round"><g transform="translate(405.00976523831343 80.43751088238344) rotate(0 0 88.06207839742711)"><path d="M-0.89 0.03 C-0.89 29.4, 0.02 145.84, 0.31 175.21 M0.84 -1 C0.69 28.58, -0.42 146.49, -0.48 176.27" stroke="#d04000" stroke-width="1" fill="none"></path></g></g><mask></mask><g stroke-linecap="round"><g transform="translate(505.16121859226234 99.56176370710148) rotate(0 0 77.8377556685366)"><path d="M0.31 -0.91 C0.59 25.05, 0.79 129.54, 0.81 155.82 M-0.99 1.22 C-0.72 27.4, 0.14 131.8, 0.28 157.44" stroke="#d04000" stroke-width="1" fill="none"></path></g></g><mask></mask><g stroke-linecap="round"><g transform="translate(517.8315927938744 103.56176370710148) rotate(0 0 76.65059403546053)"><path d="M-0.51 0.08 C-0.64 25.84, -0.58 128.56, -0.31 154.28 M1.42 -0.93 C1.07 24.54, -1.34 127.07, -1.42 152.68" stroke="#d04000" stroke-width="1" fill="none"></path></g></g><mask></mask><g stroke-linecap="round"><g transform="translate(617.9830461478233 136.56176370710148) rotate(0 0 59.488397718929036)"><path d="M-0.31 0.98 C-0.03 20.99, 1.17 100.57, 1.15 120.12 M1.73 0.45 C2 20.14, 1.34 98.79, 0.81 118.59" stroke="#d04000" stroke-width="1" fill="none"></path></g></g><mask></mask><g stroke-linecap="round"><g transform="translate(10.865134508889128 261.5617637071015) rotate(0 374.5 0)"><path d="M0.39 0.48 C125.24 0.27, 623.64 -0.4, 748.31 -0.59 M-0.87 -0.31 C124.44 -0.44, 625.96 0.53, 750.65 0.64" stroke="#d04000" stroke-width="4" fill="none"></path></g><g transform="translate(10.865134508889128 261.5617637071015) rotate(0 374.5 0)"><path d="M752.52 2.12 L737.21 7.61 L738.05 -3.78 L749.53 2.38" stroke="none" stroke-width="0" fill="#d04000" fill-rule="evenodd"></path><path d="M750.65 0.64 C748.1 1.3, 743.57 2.88, 737.05 6.96 M750.65 0.64 C748.03 1.85, 743.27 3.26, 737.05 6.96 M737.05 6.96 C737.28 2.47, 736.42 -1.93, 737.07 -5.72 M737.05 6.96 C737.25 2.67, 736.74 -0.51, 737.07 -5.72 M737.07 -5.72 C742.71 -2.55, 744.66 -1.65, 750.65 0.64 M737.07 -5.72 C741.52 -3.58, 746.58 -0.63, 750.65 0.64 M750.65 0.64 C750.65 0.64, 750.65 0.64, 750.65 0.64 M750.65 0.64 C750.65 0.64, 750.65 0.64, 750.65 0.64" stroke="#d04000" stroke-width="4" fill="none"></path></g></g><mask></mask><g stroke-linecap="round"><g transform="translate(11.471387844942456 260.5617637071015) rotate(0 0 -124.50000000000006)"><path d="M-0.59 1.09 C-0.48 -40.34, 0.58 -206.91, 0.85 -248.63 M1.3 0.61 C1.31 -41.19, 0.43 -209.12, 0.34 -250.56" stroke="#d04000" stroke-width="4" fill="none"></path></g><g transform="translate(11.471387844942456 260.5617637071015) rotate(0 0 -124.50000000000006)"><path d="M2 -250.84 L6.64 -235.54 L-3.97 -236.35 L-0.28 -251.56" stroke="none" stroke-width="0" fill="#d04000" fill-rule="evenodd"></path><path d="M0.34 -250.56 C3.72 -245.18, 4.84 -240.68, 6.74 -236.99 M0.34 -250.56 C2.28 -246.44, 4.49 -242.59, 6.74 -236.99 M6.74 -236.99 C2.74 -237.5, -2.56 -236.38, -5.94 -236.94 M6.74 -236.99 C3.77 -237.56, 2.08 -236.52, -5.94 -236.94 M-5.94 -236.94 C-4.86 -240.55, -2.89 -242.39, 0.34 -250.56 M-5.94 -236.94 C-4.9 -240.91, -3.06 -245.07, 0.34 -250.56 M0.34 -250.56 C0.34 -250.56, 0.34 -250.56, 0.34 -250.56 M0.34 -250.56 C0.34 -250.56, 0.34 -250.56, 0.34 -250.56" stroke="#d04000" stroke-width="4" fill="none"></path></g></g><mask></mask><g transform="translate(635.6338801107405 130.42042830195408) rotate(0 48 17.5)" stroke="none"><path fill="#d04000" d="M 1.18,-2.36 Q 1.18,-2.36 2.32,-1.80 3.47,-1.23 4.88,-1.06 6.29,-0.90 8.09,-0.88 9.90,-0.87 11.25,-0.41 12.61,0.05 13.40,0.91 14.20,1.78 15.11,2.66 16.02,3.54 16.81,4.28 17.60,5.02 18.74,5.41 19.88,5.80 20.78,6.88 21.67,7.95 22.91,8.29 24.14,8.63 25.94,9.13 27.74,9.64 28.92,10.03 30.10,10.43 31.20,10.51 32.30,10.60 34.10,10.65 35.89,10.71 37.88,11.46 39.86,12.21 41.00,12.32 42.15,12.44 43.42,13.40 44.70,14.36 45.68,15.32 46.67,16.29 48.40,16.67 50.13,17.04 51.14,17.75 52.14,18.46 53.20,18.95 54.26,19.45 55.58,20.02 56.90,20.59 58.41,21.15 59.92,21.71 61.15,23.14 62.39,24.58 63.61,24.53 64.83,24.49 66.47,24.54 68.12,24.58 69.46,24.58 70.80,24.59 71.92,24.66 73.03,24.74 74.19,25.27 75.36,25.79 76.47,26.13 77.59,26.47 79.08,27.38 80.57,28.29 81.79,28.43 83.02,28.56 84.35,28.96 85.69,29.37 87.02,29.47 88.36,29.57 90.82,29.95 93.28,30.32 94.94,30.96 96.59,31.59 97.06,31.88 97.53,32.16 97.89,32.57 98.24,32.99 98.45,33.50 98.65,34.01 98.68,34.55 98.71,35.10 98.56,35.63 98.42,36.15 98.11,36.61 97.80,37.06 97.37,37.39 96.93,37.72 96.41,37.90 95.90,38.07 95.35,38.07 94.80,38.07 94.28,37.90 93.76,37.73 93.33,37.40 92.89,37.06 92.59,36.61 92.28,36.16 92.13,35.63 91.98,35.11 92.01,34.56 92.04,34.01 92.24,33.50 92.45,33.00 92.80,32.58 93.15,32.16 93.62,31.88 94.09,31.60 94.63,31.48 95.16,31.36 95.70,31.42 96.25,31.48 96.75,31.71 97.24,31.94 97.64,32.31 98.04,32.69 98.29,33.17 98.55,33.66 98.64,34.19 98.73,34.73 98.64,35.27 98.55,35.81 98.30,36.30 98.04,36.78 97.64,37.16 97.25,37.53 96.75,37.77 96.25,38.00 95.71,38.05 95.17,38.11 94.63,38.00 94.10,37.88 94.10,37.88 94.10,37.88 92.14,37.14 90.19,36.41 89.12,36.38 88.06,36.35 86.71,36.22 85.36,36.10 83.96,35.69 82.55,35.29 80.65,35.00 78.76,34.72 77.43,33.91 76.10,33.10 74.73,32.59 73.37,32.09 72.08,31.74 70.79,31.40 69.40,31.39 68.01,31.38 66.42,31.33 64.83,31.29 63.19,30.95 61.56,30.62 60.24,30.15 58.92,29.69 57.74,28.37 56.56,27.06 54.85,26.60 53.14,26.14 52.15,25.65 51.17,25.16 49.65,23.96 48.12,22.75 46.77,22.58 45.42,22.42 43.96,21.76 42.49,21.11 41.03,19.87 39.57,18.64 38.50,18.32 37.43,18.01 35.83,17.61 34.22,17.22 32.17,17.13 30.13,17.05 28.27,16.54 26.42,16.04 24.97,15.59 23.51,15.13 22.35,14.97 21.18,14.80 19.87,14.03 18.55,13.25 17.15,11.88 15.75,10.51 14.28,9.40 12.81,8.30 11.95,7.40 11.08,6.51 9.62,5.61 8.15,4.72 5.98,4.49 3.82,4.27 2.47,3.90 1.12,3.53 -0.02,2.95 -1.18,2.36 -1.45,2.19 -1.71,2.01 -1.93,1.78 -2.15,1.54 -2.30,1.26 -2.45,0.98 -2.54,0.67 -2.62,0.37 -2.62,0.05 -2.63,-0.26 -2.56,-0.57 -2.49,-0.89 -2.35,-1.17 -2.20,-1.46 -2.00,-1.70 -1.79,-1.94 -1.53,-2.13 -1.27,-2.32 -0.98,-2.44 -0.68,-2.55 -0.36,-2.60 -0.05,-2.64 0.26,-2.61 0.58,-2.58 0.88,-2.47 1.18,-2.36 1.18,-2.36 L 1.18,-2.36 Z"></path></g><g stroke-linecap="round"><g transform="translate(632.6003383957255 132.56176370710148) rotate(0 0 64.57992633288683)"><path d="M0.51 0.07 C0.33 21.53, -0.44 108.29, -0.68 129.91 M-0.69 -0.94 C-0.5 20.7, 1.32 106.72, 1.67 128.18" stroke="#d04000" stroke-width="1" fill="none"></path></g></g><mask></mask><g stroke-linecap="round"><g transform="translate(732.7517917496749 165.56176370710148) rotate(0 0 47.417730016355335)"><path d="M-0.68 0.75 C-0.93 16.65, -1.16 79.95, -0.96 95.46 M1.16 0.09 C1.24 15.64, 1.43 77.91, 1.24 93.67" stroke="#d04000" stroke-width="1" fill="none"></path></g></g><mask></mask></svg>