<svg version="1.1" xmlns="http://www.w3.org/2000/svg" viewBox="0 0 732.723135824988 731" width="732.723135824988" height="731">
  <!-- svg-source:excalidraw -->
  
  <defs>
    <style class="style-fonts">
      @font-face {
        font-family: "Virgil";
        src: url("https://excalidraw.com/Virgil.woff2");
      }
      @font-face {
        font-family: "Cascadia";
        src: url("https://excalidraw.com/Cascadia.woff2");
      }
    </style>
    
  </defs>
  <g stroke-linecap="round" transform="translate(40.662498474121094 39) rotate(0 341 341)"><path d="M32 0 C249.77 -1.43, 468.91 -0.73, 650 0 M32 0 C234.64 0.68, 437.98 0.14, 650 0 M650 0 C672.54 -1.88, 683.35 9.31, 682 32 M650 0 C669.04 -0.23, 681.31 8.7, 682 32 M682 32 C680.14 255.77, 680.44 479.67, 682 650 M682 32 C682.02 155.8, 682.28 280.52, 682 650 M682 650 C680.85 673.24, 670.11 683.58, 650 682 M682 650 C681.98 671.15, 670.22 684.29, 650 682 M650 682 C429.93 680.73, 210.59 680.49, 32 682 M650 682 C449.63 681.44, 248.77 681.16, 32 682 M32 682 C10.1 681.36, -0.15 672.29, 0 650 M32 682 C10.59 684.08, 1.08 672.97, 0 650 M0 650 C-0.91 405.94, -0.66 161.25, 0 32 M0 650 C-0.96 413.34, -1.6 176.54, 0 32 M0 32 C1.35 12.32, 12.01 -0.96, 32 0 M0 32 C1.28 11.7, 9.53 -1.61, 32 0" stroke="#1e1e1e" stroke-width="2" fill="none"></path></g><g stroke-linecap="round"><g transform="translate(381.6624984741211 41) rotate(0 -0.07293817507888889 338.995198398997)"><path d="M0.01 0.01 C0.01 113.05, 0 565.08, 0.02 678.1 M-0.16 -0.11 C-0.18 112.89, -0.12 564.89, -0.09 677.89" stroke="#aaa" stroke-width="2" fill="none"></path></g></g><mask></mask><g stroke-linecap="round"><g transform="translate(40.662498474121094 382) rotate(0 340.9344695613703 0.08067512708726099)"><path d="M-0.01 -0.07 C113.67 -0.08, 568.4 -0.02, 682.06 0.01 M-0.19 0.22 C113.47 0.22, 568.31 0.25, 681.98 0.19" stroke="#aaa" stroke-width="2" fill="none"></path></g></g><mask></mask><g transform="translate(168.6624984741211 10) rotate(0 32.349998474121094 12.5)"><text x="0" y="0" font-family="Virgil, Segoe UI Emoji" font-size="20px" fill="#1e1e1e" text-anchor="start" style="white-space: pre;" direction="ltr" dominant-baseline="text-before-edge">Urgent</text></g><g transform="translate(492.6624984741211 10) rotate(0 53.61249923706055 12.5)"><text x="0" y="0" font-family="Virgil, Segoe UI Emoji" font-size="20px" fill="#1e1e1e" text-anchor="start" style="white-space: pre;" direction="ltr" dominant-baseline="text-before-edge">Not urgent</text></g><g transform="translate(-26.337501525878906 201) rotate(270 49.38750076293945 12.5)"><text x="0" y="0" font-family="Virgil, Segoe UI Emoji" font-size="20px" fill="#1e1e1e" text-anchor="start" style="white-space: pre;" direction="ltr" dominant-baseline="text-before-edge">Important</text></g><g transform="translate(-46.337501525878906 524) rotate(270 68.8375015258789 12.5)"><text x="0" y="0" font-family="Virgil, Segoe UI Emoji" font-size="20px" fill="#1e1e1e" text-anchor="start" style="white-space: pre;" direction="ltr" dominant-baseline="text-before-edge">Not important</text></g><g transform="translate(152.6624984741211 183) rotate(0 62.087501525878906 25)"><text x="62.087501525878906" y="0" font-family="Virgil, Segoe UI Emoji" font-size="20px" fill="#aaa" text-anchor="middle" style="white-space: pre;" direction="ltr" dominant-baseline="text-before-edge">Definitely do</text><text x="62.087501525878906" y="25" font-family="Virgil, Segoe UI Emoji" font-size="20px" fill="#aaa" text-anchor="middle" style="white-space: pre;" direction="ltr" dominant-baseline="text-before-edge">this stuff</text></g><g transform="translate(490.7249984741211 518) rotate(0 58.9375 25)"><text x="58.9375" y="0" font-family="Virgil, Segoe UI Emoji" font-size="20px" fill="#aaa" text-anchor="middle" style="white-space: pre;" direction="ltr" dominant-baseline="text-before-edge">Only do this</text><text x="58.9375" y="25" font-family="Virgil, Segoe UI Emoji" font-size="20px" fill="#aaa" text-anchor="middle" style="white-space: pre;" direction="ltr" dominant-baseline="text-before-edge">for fun</text></g><g stroke-linecap="round"><g transform="translate(470.4058700480325 390.94314064152536) rotate(0 -14.916826384623846 -35.45338531597787)"><path d="M0.01 0.24 C-4.93 -11.59, -24.75 -59.25, -29.67 -71.15 M-0.3 0.14 C-5.26 -11.66, -24.96 -59.07, -29.84 -70.92" stroke="#f08c00" stroke-width="4" fill="none"></path></g><g transform="translate(470.4058700480325 390.94314064152536) rotate(0 -14.916826384623846 -35.45338531597787)"><path d="M-30.25 -70.91 L-18.78 -61.19 L-30.99 -55.78 L-30.04 -70.64" stroke="none" stroke-width="0" fill="#f08c00" fill-rule="evenodd"></path><path d="M-29.84 -70.92 C-26.44 -68.01, -24.01 -65.02, -18.78 -60.79 M-29.84 -70.92 C-27.24 -68.73, -24.76 -66.27, -18.78 -60.79 M-18.78 -60.79 C-21.42 -59.76, -24.02 -58.52, -30.5 -55.94 M-18.78 -60.79 C-22.83 -59.33, -26.65 -57.6, -30.5 -55.94 M-30.5 -55.94 C-30.49 -60.99, -30.03 -66.04, -29.84 -70.92 M-30.5 -55.94 C-30.38 -59.03, -30.31 -62.2, -29.84 -70.92 M-29.84 -70.92 C-29.84 -70.92, -29.84 -70.92, -29.84 -70.92 M-29.84 -70.92 C-29.84 -70.92, -29.84 -70.92, -29.84 -70.92" stroke="#f08c00" stroke-width="4" fill="none"></path></g></g><mask></mask><g stroke-linecap="round" transform="translate(472.6624984741211 400) rotate(0 3 3)"><path d="M3.22 0.08 C3.84 0.07, 4.76 0.46, 5.2 0.88 C5.64 1.3, 5.81 1.96, 5.86 2.6 C5.92 3.23, 5.85 4.18, 5.53 4.72 C5.21 5.26, 4.55 5.65, 3.94 5.82 C3.33 6, 2.5 6.02, 1.88 5.77 C1.27 5.51, 0.54 4.85, 0.24 4.29 C-0.06 3.73, -0.11 3.05, 0.07 2.43 C0.25 1.81, 0.77 0.97, 1.31 0.57 C1.85 0.18, 3.02 0.14, 3.32 0.06 C3.62 -0.03, 3.17 0.01, 3.13 0.07 M3.27 0.22 C3.81 0.17, 4.45 0.28, 4.89 0.71 C5.33 1.14, 5.81 2.14, 5.92 2.81 C6.02 3.48, 5.85 4.22, 5.51 4.73 C5.17 5.24, 4.55 5.68, 3.88 5.86 C3.22 6.04, 2.16 6.02, 1.54 5.78 C0.92 5.55, 0.4 4.99, 0.17 4.43 C-0.07 3.87, -0.08 3.13, 0.14 2.45 C0.35 1.77, 0.97 0.78, 1.46 0.35 C1.94 -0.09, 2.74 -0.07, 3.06 -0.15 C3.38 -0.23, 3.4 -0.18, 3.4 -0.13" stroke="none" stroke-width="0" fill="#ffd8a8"></path><path d="M2.75 0.1 C3.4 0.04, 4.35 0.38, 4.89 0.74 C5.43 1.1, 5.86 1.67, 6 2.27 C6.13 2.87, 5.97 3.74, 5.69 4.32 C5.41 4.89, 4.89 5.48, 4.32 5.72 C3.75 5.96, 2.9 5.93, 2.25 5.77 C1.6 5.61, 0.77 5.28, 0.41 4.76 C0.05 4.23, 0 3.29, 0.11 2.63 C0.21 1.96, 0.6 1.22, 1.06 0.79 C1.51 0.35, 2.51 0.14, 2.81 0.02 C3.12 -0.1, 2.87 0.03, 2.9 0.07 M3.17 -0.11 C3.8 -0.12, 4.63 0.37, 5.06 0.82 C5.5 1.27, 5.69 1.98, 5.77 2.59 C5.86 3.2, 5.91 3.96, 5.56 4.49 C5.22 5.02, 4.31 5.6, 3.69 5.77 C3.08 5.94, 2.41 5.77, 1.89 5.54 C1.37 5.31, 0.86 4.91, 0.55 4.38 C0.24 3.85, -0.05 3, 0.03 2.35 C0.11 1.71, 0.53 0.93, 1.04 0.53 C1.55 0.13, 2.74 0.04, 3.08 -0.04 C3.42 -0.12, 3.05 0.01, 3.07 0.05" stroke="#f08c00" stroke-width="4" fill="none"></path></g></svg>