<?xml version="1.0" encoding="UTF-8" standalone="no"?>
<!-- Generator: Adobe Illustrator 16.0.0, SVG Export Plug-In . SVG Version: 6.00 Build 0)  -->

<svg
   xmlns:dc="http://purl.org/dc/elements/1.1/"
   xmlns:cc="http://creativecommons.org/ns#"
   xmlns:rdf="http://www.w3.org/1999/02/22-rdf-syntax-ns#"
   xmlns:svg="http://www.w3.org/2000/svg"
   xmlns="http://www.w3.org/2000/svg"
   xmlns:sodipodi="http://sodipodi.sourceforge.net/DTD/sodipodi-0.dtd"
   xmlns:inkscape="http://www.inkscape.org/namespaces/inkscape"
   version="1.1"
   id="Layer_1"
   x="0px"
   y="0px"
   width="28.684px"
   height="22.501px"
   viewBox="0 0 28.684 22.501"
   style="enable-background:new 0 0 28.684 22.501;"
   xml:space="preserve"
   inkscape:version="0.48.5 r10040"
   sodipodi:docname="olive.svg"><metadata
     id="metadata3195"><rdf:RDF><cc:Work
         rdf:about=""><dc:format>image/svg+xml</dc:format><dc:type
           rdf:resource="http://purl.org/dc/dcmitype/StillImage" /></cc:Work></rdf:RDF></metadata><defs
     id="defs3193" /><sodipodi:namedview
     pagecolor="#ffffff"
     bordercolor="#666666"
     borderopacity="1"
     objecttolerance="10"
     gridtolerance="10"
     guidetolerance="10"
     inkscape:pageopacity="0"
     inkscape:pageshadow="2"
     inkscape:window-width="1600"
     inkscape:window-height="880"
     id="namedview3191"
     showgrid="false"
     inkscape:zoom="31.998579"
     inkscape:cx="8.8886328"
     inkscape:cy="11.2505"
     inkscape:window-x="0"
     inkscape:window-y="0"
     inkscape:window-maximized="0"
     inkscape:current-layer="Layer_1" /><g
     id="g3111"
     style="fill:#345806;fill-opacity:1"><g
       id="g3113"
       style="fill:#345806;fill-opacity:1"><path
         d="M3.136,8.048c0,0,0.886-1.142,0.313-2.728C2.874,3.735,1.535,3.133,1.535,3.133S0.533,4.494,1.093,6.039    C1.652,7.585,3.136,8.048,3.136,8.048z"
         id="path3115"
         style="fill:#345806;fill-opacity:1" /><path
         d="M5.595,8.859c0,0,1.549-0.124,2.436-1.509c0.887-1.384,0.209-2.932,0.209-2.932S6.802,4.71,5.891,6.131    C4.981,7.551,5.595,8.859,5.595,8.859z"
         id="path3117"
         style="fill:#345806;fill-opacity:1" /><path
         d="M5.752,10.689c-0.717,1.527,0.062,2.744,0.062,2.744s1.521-0.326,2.219-1.813c0.697-1.489-0.177-2.935-0.177-2.935    S6.469,9.162,5.752,10.689z"
         id="path3119"
         style="fill:#345806;fill-opacity:1" /><path
         d="M9.253,11.919c0,0-1.337,0.606-1.907,2.193c-0.57,1.588,0.319,2.726,0.319,2.726s1.482-0.467,2.038-2.014    C10.258,13.278,9.253,11.919,9.253,11.919z"
         id="path3121"
         style="fill:#345806;fill-opacity:1" /><path
         d="M10.367,20.271c0,0,1.286-0.874,1.373-2.515c0.086-1.642-1.269-2.653-1.269-2.653s-1.106,0.966-1.195,2.65    C9.188,19.436,10.367,20.271,10.367,20.271z"
         id="path3123"
         style="fill:#345806;fill-opacity:1" /><path
         d="M5.111,4.992c0,0,1.371-0.458,1.773-2.095C7.287,1.26,6.508,0.016,6.508,0.016S4.92,0.592,4.527,2.189    C4.135,3.785,5.111,4.992,5.111,4.992z"
         id="path3125"
         style="fill:#345806;fill-opacity:1" /><path
         d="M3.135,11.529c0,0,0.509-1.353-0.506-2.698C1.612,7.485,0.156,7.304,0.156,7.304S-0.4,8.9,0.59,10.212    C1.58,11.525,3.135,11.529,3.135,11.529z"
         id="path3127"
         style="fill:#345806;fill-opacity:1" /><path
         d="M4.271,15.1c0,0,0.195-1.432-1.093-2.518c-1.29-1.087-2.75-0.939-2.75-0.939s-0.188,1.68,1.068,2.739    C2.754,15.44,4.271,15.1,4.271,15.1z"
         id="path3129"
         style="fill:#345806;fill-opacity:1" /><path
         d="M6.001,18.051c0,0-0.245-1.424-1.803-2.069c-1.559-0.646-2.905-0.063-2.905-0.063s0.33,1.658,1.848,2.288    C4.659,18.835,6.001,18.051,6.001,18.051z"
         id="path3131"
         style="fill:#345806;fill-opacity:1" /><path
         d="M6.757,19.277c-1.624-0.454-2.892,0.285-2.892,0.285s0.525,1.607,2.107,2.05c1.584,0.443,2.822-0.497,2.822-0.497    S8.381,19.731,6.757,19.277z"
         id="path3133"
         style="fill:#345806;fill-opacity:1" /><path
         d="M5.28,5.968L4.558,5.613c-0.038,0.079-3.752,7.968,6.684,16.889l0.522-0.612C1.828,13.397,5.134,6.267,5.28,5.968z"
         id="path3135"
         style="fill:#345806;fill-opacity:1" /></g><g
       id="g3137"
       style="fill:#345806;fill-opacity:1"><path
         d="M25.549,8.033c0,0-0.887-1.142-0.313-2.727c0.573-1.586,1.913-2.188,1.913-2.188s1.001,1.36,0.441,2.906    C27.032,7.57,25.549,8.033,25.549,8.033z"
         id="path3139"
         style="fill:#345806;fill-opacity:1" /><path
         d="M23.09,8.844c0,0-1.549-0.125-2.436-1.509c-0.887-1.384-0.209-2.932-0.209-2.932s1.438,0.292,2.349,1.712    C23.703,7.536,23.09,8.844,23.09,8.844z"
         id="path3141"
         style="fill:#345806;fill-opacity:1" /><path
         d="M22.933,10.673c0.717,1.527-0.062,2.745-0.062,2.745s-1.521-0.326-2.219-1.813c-0.697-1.489,0.176-2.935,0.176-2.935    S22.216,9.147,22.933,10.673z"
         id="path3143"
         style="fill:#345806;fill-opacity:1" /><path
         d="M19.432,11.904c0,0,1.336,0.605,1.907,2.193c0.57,1.588-0.32,2.726-0.32,2.726s-1.482-0.467-2.037-2.014    C18.426,13.262,19.432,11.904,19.432,11.904z"
         id="path3145"
         style="fill:#345806;fill-opacity:1" /><path
         d="M18.316,20.255c0,0-1.285-0.874-1.372-2.516c-0.086-1.642,1.269-2.653,1.269-2.653s1.105,0.965,1.194,2.65    C19.496,19.421,18.316,20.255,18.316,20.255z"
         id="path3147"
         style="fill:#345806;fill-opacity:1" /><path
         d="M23.572,4.977c0,0-1.37-0.458-1.772-2.095C21.397,1.245,22.177,0,22.177,0s1.588,0.576,1.98,2.174    C24.55,3.769,23.572,4.977,23.572,4.977z"
         id="path3149"
         style="fill:#345806;fill-opacity:1" /><path
         d="M25.55,11.514c0,0-0.509-1.353,0.505-2.698c1.017-1.346,2.474-1.527,2.474-1.527s0.556,1.596-0.434,2.908    C27.104,11.51,25.55,11.514,25.55,11.514z"
         id="path3151"
         style="fill:#345806;fill-opacity:1" /><path
         d="M24.413,15.084c0,0-0.196-1.432,1.093-2.519c1.29-1.087,2.75-0.939,2.75-0.939s0.188,1.68-1.069,2.739    S24.413,15.084,24.413,15.084z"
         id="path3153"
         style="fill:#345806;fill-opacity:1" /><path
         d="M22.683,18.036c0,0,0.246-1.424,1.804-2.07c1.559-0.646,2.905-0.063,2.905-0.063s-0.33,1.658-1.848,2.287    C24.025,18.82,22.683,18.036,22.683,18.036z"
         id="path3155"
         style="fill:#345806;fill-opacity:1" /><path
         d="M21.927,19.262c1.624-0.454,2.893,0.285,2.893,0.285s-0.525,1.606-2.108,2.05c-1.583,0.442-2.821-0.497-2.821-0.497    S20.304,19.716,21.927,19.262z"
         id="path3157"
         style="fill:#345806;fill-opacity:1" /><path
         d="M23.404,5.953l0.723-0.355c0.038,0.079,3.752,7.968-6.684,16.889l-0.522-0.612C26.856,13.382,23.55,6.251,23.404,5.953z"
         id="path3159"
         style="fill:#345806;fill-opacity:1" /></g></g><g
     id="g3161" /><g
     id="g3163" /><g
     id="g3165" /><g
     id="g3167" /><g
     id="g3169" /><g
     id="g3171" /><g
     id="g3173" /><g
     id="g3175" /><g
     id="g3177" /><g
     id="g3179" /><g
     id="g3181" /><g
     id="g3183" /><g
     id="g3185" /><g
     id="g3187" /><g
     id="g3189" /></svg>